HIERARCHY
ROOT Hips
{
    OFFSET 0.000000 0.000000 0.000000
    CHANNELS 6 Xposition Yposition Zposition Zrotation Xrotation Yrotation
    JOINT Spine
    {
        OFFSET -0.000000 8.312343 0.000000
        CHANNELS 3 Zrotation Xrotation Yrotation
        JOINT Spine1
        {
            OFFSET -0.000000 28.293047 0.000000
            CHANNELS 3 Zrotation Xrotation Yrotation
            JOINT Neck
            {
                OFFSET -0.000000 28.176853 2.561532
                CHANNELS 3 Zrotation Xrotation Yrotation
                JOINT Head
                {
                    OFFSET -0.000000 14.191803 -2.027400
                    CHANNELS 3 Zrotation Xrotation Yrotation
                    End Site
                    {
                        OFFSET -0.000000 25.342506 0.000000
                    }
                }
            }
            JOINT LeftShoulder
            {
                OFFSET 4.015815 26.370180 -0.268885
                CHANNELS 3 Zrotation Xrotation Yrotation
                JOINT LeftArm
                {
                    OFFSET 11.299099 0.000000 0.000000
                    CHANNELS 3 Zrotation Xrotation Yrotation
                    JOINT LeftForeArm
                    {
                        OFFSET 30.537071 0.000000 0.000000
                        CHANNELS 3 Zrotation Xrotation Yrotation
                        JOINT LeftHand
                        {
                            OFFSET 29.851767 0.000000 0.000000
                            CHANNELS 3 Zrotation Xrotation Yrotation
                            End Site
                            {
                                OFFSET 15.205504 0.000000 0.000000
                            }
                        }
                    }
                }
            }
            JOINT RightShoulder
            {
                OFFSET -4.091585 26.370180 -0.268885
                CHANNELS 3 Zrotation Xrotation Yrotation
                JOINT RightArm
                {
                    OFFSET -11.299099 0.000000 0.000000
                    CHANNELS 3 Zrotation Xrotation Yrotation
                    JOINT RightForeArm
                    {
                        OFFSET -30.537071 0.000000 0.000000
                        CHANNELS 3 Zrotation Xrotation Yrotation
                        JOINT RightHand
                        {
                            OFFSET -29.851767 0.000000 0.000000
                            CHANNELS 3 Zrotation Xrotation Yrotation
                            End Site
                            {
                                OFFSET -15.205504 0.000000 0.000000
                            }
                        }
                    }
                }
            }
        }
    }
    JOINT LeftUpLeg
    {
        OFFSET 10.137003 0.000000 0.000000
        CHANNELS 3 Zrotation Xrotation Yrotation
        JOINT LeftLeg
        {
            OFFSET -0.000000 -31.675148 0.000000
            CHANNELS 3 Zrotation Xrotation Yrotation
            JOINT LeftFoot
            {
                OFFSET -0.000000 -48.008553 0.000000
                CHANNELS 3 Zrotation Xrotation Yrotation
                JOINT LeftToeBase
                {
                    OFFSET -0.000000 -6.589051 15.205504
                    CHANNELS 3 Zrotation Xrotation Yrotation
                    End Site
                    {
                        OFFSET -0.000000 0.000000 4.054801
                    }
                }
            }
        }
    }
    JOINT RightUpLeg
    {
        OFFSET -10.137003 0.000000 0.000000
        CHANNELS 3 Zrotation Xrotation Yrotation
        JOINT RightLeg
        {
            OFFSET -0.000000 -31.675148 0.000000
            CHANNELS 3 Zrotation Xrotation Yrotation
            JOINT RightFoot
            {
                OFFSET -0.000000 -48.008553 0.000000
                CHANNELS 3 Zrotation Xrotation Yrotation
                JOINT RightToeBase
                {
                    OFFSET -0.000000 -6.589051 15.205504
                    CHANNELS 3 Zrotation Xrotation Yrotation
                    End Site
                    {
                        OFFSET -0.000000 0.000000 4.054801
                    }
                }
            }
        }
    }
}
MOTION
Frames:    14
Frame Time:    0.008333
93.992790    87.977966    -8.182613    -4.065744    -1.744972    82.112091    1.980747    -16.420517    -1.057902    0.009382    5.564600    -1.344232    -13.075240    25.959362    -6.492387    19.390259    -1.477018    -4.977067    9.337027    -2.183787    -0.238840    -43.284348    15.203986    -36.291565    78.006477    -38.424690    -46.530827    70.371529    10.357109    14.695814    -12.623618    4.091817    2.351724    71.755005    65.115189    9.046002    -1.284758    -12.751257    25.429756    -7.034097    -12.792591    5.396529    7.838178    0.645706    1.247981    -3.571831    -2.624729    11.819720    -5.054471    3.910716    21.118454    0.000000    0.000000    0.000000    -1.122459    0.602139    1.564631    2.382471    -1.371108    -3.288382    6.843253    1.771832    -9.200988    0.000000    0.000000    0.000000    
93.990517    87.977440    -8.179749    -4.048731    -1.754690    82.126694    1.987101    -16.434528    -1.053053    -0.026449    5.584196    -1.338794    -13.043066    25.883389    -6.494016    19.347595    -1.359694    -4.991968    9.468791    -2.193416    -0.416208    -43.547657    14.999778    -36.165981    78.872925    -37.187176    -46.546417    72.274818    10.964049    11.947118    -12.621696    4.078585    2.357057    71.665001    65.193268    9.150834    -1.298536    -12.750420    25.434017    -6.987268    -12.788315    5.426557    7.851104    0.644114    1.250483    -3.576355    -2.597806    11.782784    -5.038686    3.898555    21.130278    0.000000    0.000000    0.000000    -1.104981    0.612108    1.552995    2.369224    -1.357370    -3.308275    6.681480    1.756102    -9.145532    0.000000    0.000000    0.000000    
93.988647    87.977211    -8.178874    -4.033101    -1.749045    82.133492    1.982523    -16.435097    -1.038355    -0.072004    5.573736    -1.321269    -13.022295    25.814377    -6.512351    19.347105    -1.226879    -5.022314    9.337648    -2.340237    -0.327413    -43.253143    15.218026    -36.269863    79.414444    -36.640087    -46.510143    73.532913    9.711452    8.550464    -12.596169    4.040912    2.358017    71.640411    65.364883    9.150393    -1.352390    -12.810756    25.451830    -6.855997    -12.833661    5.480564    7.847342    0.650879    1.257320    -3.583152    -2.592432    11.813301    -5.048066    3.906093    21.097847    0.000000    0.000000    0.000000    -1.109726    0.610358    1.559303    2.366145    -1.329361    -3.297203    6.847391    1.744262    -9.201633    0.000000    0.000000    0.000000    
93.986450    87.973656    -8.178305    -4.015662    -1.748025    82.137375    1.993787    -16.432959    -1.027125    -0.138663    5.568167    -1.308355    -12.966083    25.772518    -6.524867    19.326605    -1.159175    -5.039092    9.362911    -2.343642    -0.381851    -43.326801    14.916381    -36.173206    79.721161    -36.020458    -46.954586    74.427368    8.849847    5.265244    -12.552349    4.028064    2.375716    71.606361    65.400429    9.158892    -1.358453    -12.807256    25.495043    -6.882373    -12.830632    5.499318    7.846288    0.661553    1.254101    -3.588823    -2.579992    11.722072    -5.061136    3.856429    21.190140    0.000000    0.000000    0.000000    -1.116219    0.614416    1.574817    2.371699    -1.306880    -3.295266    6.675383    1.702126    -9.184977    0.000000    0.000000    0.000000    
93.989380    87.973488    -8.174310    -3.992719    -1.760092    82.149986    2.017290    -16.436396    -1.030756    -0.197239    5.580810    -1.312559    -12.945209    25.756197    -6.528233    19.314287    -1.165529    -5.039363    9.379123    -2.381724    -0.383938    -43.275551    14.772587    -36.134216    80.304214    -35.161041    -47.124557    75.119675    8.186875    2.055182    -12.481483    3.904265    2.449344    71.815132    65.406097    8.872378    -1.373215    -12.858889    25.550402    -6.879913    -12.879024    5.513601    7.864030    0.676888    1.272954    -3.601182    -2.566264    11.707286    -5.020534    3.870816    21.160612    0.000000    0.000000    0.000000    -1.102223    0.633381    1.580047    2.361237    -1.294458    -3.295201    6.854325    1.717208    -9.217204    0.000000    0.000000    0.000000    
93.986763    87.971252    -8.174370    -3.981756    -1.748251    82.142662    1.993762    -16.461130    -1.020213    -0.201744    5.618353    -1.298759    -13.037926    25.421175    -6.669324    19.426395    -0.636588    -5.222935    9.388033    -2.412643    -0.415672    -43.180553    14.712662    -36.088051    80.909966    -34.442089    -47.128548    75.140045    7.255726    -0.995172    -12.484545    3.891651    2.420128    71.744324    65.397598    8.941116    -1.384306    -12.855344    25.592161    -6.806757    -12.873907    5.596732    7.849388    0.687868    1.257818    -3.598680    -2.568594    11.705338    -5.031279    3.853571    21.186455    0.000000    0.000000    0.000000    -1.121589    0.621081    1.594261    2.371378    -1.259250    -3.284204    6.849892    1.675157    -9.232449    0.000000    0.000000    0.000000    
93.982544    87.970383    -8.171883    -3.969682    -1.746672    82.141853    1.971571    -16.447559    -1.018829    -0.183720    5.588816    -1.294902    -13.193668    25.382915    -6.658715    19.636044    -0.549462    -5.203931    9.390502    -2.454843    -0.428993    -43.099785    14.687493    -35.992039    81.652351    -33.534492    -46.913692    74.812096    6.548073    -3.881620    -12.470734    3.919597    2.307648    71.500443    65.526154    9.168523    -1.387346    -12.904968    25.625586    -6.809995    -12.923965    5.620211    7.851035    0.692902    1.252121    -3.601593    -2.563463    11.731339    -5.009906    3.873153    21.156006    0.000000    0.000000    0.000000    -1.121106    0.609481    1.598816    2.370476    -1.230085    -3.302419    6.848657    1.665236    -9.214131    0.000000    0.000000    0.000000    
93.981171    87.968201    -8.168137    -3.959032    -1.752024    82.142921    1.949997    -16.477535    -1.018952    -0.158841    5.639952    -1.293562    -13.137081    25.529013    -6.572367    19.561178    -0.913170    -5.077600    9.434259    -2.519032    -0.413917    -43.058186    14.630104    -35.923214    82.108101    -32.683228    -46.797237    75.131104    5.776100    -6.523484    -12.531067    3.873091    2.337983    71.584518    65.599899    9.095551    -1.433105    -12.993625    25.698032    -6.791533    -13.001478    5.634755    7.861382    0.700859    1.234948    -3.604986    -2.553562    11.696079    -5.030291    3.833172    21.200190    0.000000    0.000000    0.000000    -1.118165    0.608536    1.597537    2.372988    -1.213583    -3.307628    6.833389    1.662521    -9.195432    0.000000    0.000000    0.000000    
93.982803    87.968636    -8.163907    -3.941258    -1.755968    82.144463    1.931203    -16.504776    -1.011544    -0.142673    5.691912    -1.284630    -13.071096    25.413557    -6.617088    19.447922    -0.815364    -5.136981    9.386524    -2.575044    -0.338736    -42.816940    14.567863    -35.975845    81.908905    -32.208809    -47.066990    75.836426    4.897852    -8.471113    -12.546845    3.845060    2.286785    71.706039    65.319115    9.016612    -1.406941    -12.876512    25.705458    -6.742810    -12.893936    5.741434    7.873310    0.718291    1.216830    -3.618724    -2.548457    11.690295    -5.033299    3.823785    21.220150    0.000000    0.000000    0.000000    -1.115051    0.627925    1.588382    2.374598    -1.214634    -3.304267    6.825966    1.668711    -9.188066    0.000000    0.000000    0.000000    
93.983749    87.970398    -8.158444    -3.925418    -1.761705    82.149986    1.916375    -16.513031    -1.015258    -0.130822    5.693091    -1.286893    -13.034255    25.391075    -6.641653    19.367977    -0.792466    -5.172472    9.504769    -2.460843    -0.454801    -42.955875    14.057258    -35.888165    81.359406    -31.841911    -47.743561    75.999817    4.617681    -9.758921    -12.516246    3.847008    2.294783    71.763084    65.102791    8.932371    -1.370031    -12.820499    25.747160    -6.839278    -12.852551    5.778312    7.883803    0.727976    1.192198    -3.621862    -2.533337    11.665236    -4.942252    3.887931    21.217850    0.000000    0.000000    0.000000    -1.103028    0.643746    1.568932    2.367663    -1.213192    -3.307817    6.820967    1.680507    -9.174972    0.000000    0.000000    0.000000    
93.978607    87.972511    -8.157234    -3.917866    -1.761695    82.141937    1.927472    -16.513659    -1.022046    -0.144258    5.671631    -1.294659    -13.123424    25.347816    -6.634582    19.430941    -0.701883    -5.172982    9.547654    -2.460916    -0.445465    -42.802567    14.003391    -35.834160    80.554619    -31.941456    -48.358902    76.394081    4.045461    -10.277442    -12.502425    3.850781    2.319066    71.731255    65.184967    8.927834    -1.405651    -12.945130    25.818853    -6.922311    -12.971479    5.762544    7.878822    0.711577    1.191295    -3.615670    -2.493461    11.630069    -5.048792    3.792981    21.304918    0.000000    0.000000    0.000000    -1.102455    0.632209    1.557890    2.366251    -1.185603    -3.302646    6.838202    1.679269    -9.159323    0.000000    0.000000    0.000000    
93.979240    87.973412    -8.153179    -3.899602    -1.764130    82.139694    1.876614    -16.617174    -0.950971    -0.071018    5.863903    -1.221458    -12.944958    25.163260    -6.824037    19.243608    -0.543131    -5.386099    9.636029    -2.527833    -0.637394    -42.703754    13.958984    -35.824013    79.482330    -32.184750    -49.102177    76.602516    3.682472    -10.224337    -12.495559    3.816837    2.136805    71.747131    65.022926    8.892767    -1.402779    -12.912062    25.855459    -6.947433    -12.943607    5.826752    7.888646    0.710747    1.192585    -3.630902    -2.459698    11.620168    -4.936143    3.862700    21.276516    0.000000    0.000000    0.000000    -1.098748    0.651700    1.556993    2.366857    -1.187096    -3.289979    6.662726    1.665254    -9.138894    0.000000    0.000000    0.000000    
93.977570    87.976013    -8.153287    -3.888494    -1.761675    82.132271    1.910476    -16.689049    -0.927989    -0.168023    6.025612    -1.199487    -12.725014    25.022028    -6.895770    19.082846    -0.583239    -5.441306    9.913779    -2.645313    -0.542656    -42.591412    14.181914    -35.891048    78.426987    -32.545742    -49.648876    76.801598    3.299855    -9.742213    -12.516802    3.706691    2.044223    71.802811    65.215843    8.856565    -1.471929    -13.023543    25.932922    -6.621129    -13.025606    5.884656    7.882464    0.695184    1.168173    -3.627813    -2.414980    11.644102    -4.937087    3.846814    21.288857    0.000000    0.000000    0.000000    -1.103330    0.656548    1.551630    2.363926    -1.175685    -3.278050    6.837840    1.683070    -9.157293    0.000000    0.000000    0.000000    
93.976860    87.976662    -8.149570    -3.874684    -1.765934    82.127625    1.881715    -16.634111    -0.937859    -0.071129    5.848990    -1.209443    -12.875347    25.303383    -6.838410    19.134724    -0.745906    -5.396029    9.753080    -2.507487    -0.696625    -42.259712    14.182273    -35.789940    77.478020    -32.777519    -50.021641    77.277557    3.015107    -9.149499    -12.531736    3.902353    2.152064    71.634583    65.129532    9.015013    -1.514097    -13.076760    25.896933    -6.642005    -13.074282    5.944354    7.892515    0.674407    1.185418    -3.640349    -2.356236    11.598350    -4.913118    3.824351    21.323973    0.000000    0.000000    0.000000    -1.096770    0.672993    1.549817    2.363102    -1.181785    -3.272858    6.670066    1.674576    -9.126428    0.000000    0.000000    0.000000    
